<?xml version="1.0" encoding="UTF-8"?>
<svg id="Layer_1" data-name="Layer 1" xmlns="http://www.w3.org/2000/svg" xmlns:xlink="http://www.w3.org/1999/xlink" viewBox="0 0 1809.48 630.38">
  <defs>
    <style>
      .cls-1 {
        fill: url(#linear-gradient);
      }

      .cls-2 {
        letter-spacing: 0em;
      }

      .cls-3 {
        letter-spacing: -.01em;
      }

      .cls-4 {
        fill: #0e0f26;
        stroke: #231f20;
        stroke-miterlimit: 10;
      }

      .cls-5 {
        letter-spacing: -.01em;
      }

      .cls-6 {
        letter-spacing: 0em;
      }

      .cls-7 {
        letter-spacing: -.01em;
      }

      .cls-8 {
        fill: url(#linear-gradient-3);
      }

      .cls-9 {
        fill: url(#linear-gradient-4);
      }

      .cls-10 {
        fill: url(#linear-gradient-2);
      }

      .cls-11 {
        fill: url(#linear-gradient-5);
      }

      .cls-12 {
        letter-spacing: -.02em;
      }

      .cls-13 {
        letter-spacing: 0em;
      }

      .cls-14 {
        letter-spacing: 0em;
      }

      .cls-15 {
        font-family: SiemensSans-Roman, 'Siemens Sans';
        font-size: 60px;
      }

      .cls-16 {
        letter-spacing: .02em;
      }

      .cls-17 {
        letter-spacing: -.07em;
      }
    </style>
    <linearGradient id="linear-gradient" x1="561.08" y1="664.89" x2="561.08" y2="1092.8" gradientTransform="translate(0 -552.15)" gradientUnits="userSpaceOnUse">
      <stop offset="0" stop-color="#44c3d5"/>
      <stop offset="1" stop-color="#0ba0b8"/>
    </linearGradient>
    <linearGradient id="linear-gradient-2" x1="299.42" y1="664.89" x2="299.42" y2="1092.8" xlink:href="#linear-gradient"/>
    <linearGradient id="linear-gradient-3" x1="573.13" y1="667.28" x2="573.13" y2="1092.8" gradientTransform="translate(0 -552.15)" gradientUnits="userSpaceOnUse">
      <stop offset="0" stop-color="#05a5b0"/>
      <stop offset="1" stop-color="#0096ad"/>
    </linearGradient>
    <linearGradient id="linear-gradient-4" x1="299.42" y1="664.89" x2="299.42" y2="1092.8" xlink:href="#linear-gradient"/>
    <linearGradient id="linear-gradient-5" x1="843.99" y1="325.4" x2="1698.75" y2="325.4" gradientUnits="userSpaceOnUse">
      <stop offset="0" stop-color="#59c5c8"/>
      <stop offset="1" stop-color="#6fc5a1"/>
    </linearGradient>
  </defs>
  <rect class="cls-4" x=".5" y=".5" width="1808.48" height="629.38"/>
  <g id="Layer_1-2" data-name="Layer 1-2">
    <g>
      <g>
        <path class="cls-1" d="m477.76,540.66h-114.61c-10.16,0-16.29-11.22-10.81-19.76l247.3-385.78c4.78-7.45,12.41-12.59,21.1-14.22l144.13-27.02c5.08-.94,8.83,4.63,6.04,8.96l-275.14,428.01c-3.94,6.12-10.72,9.83-18,9.83h-.01Z"/>
        <path class="cls-10" d="m215.66,540.66h-112.65c-10.99,0-17.64-12.15-11.7-21.42l246.23-384.13c4.78-7.45,12.41-12.59,21.1-14.22l144.13-27.02c5.08-.94,8.83,4.63,6.04,8.96l-275.15,427.99c-3.94,6.12-10.72,9.83-18,9.83h0Z"/>
      </g>
      <path class="cls-8" d="m645.79,540.66h112.89c10.89,0,17.56-11.96,11.83-21.23L509.39,97.64c-2.42-3.91-2.01-3.78-6.61-3.78l-58.22,12.69c4.12,2.48,14.02,2.48-70.91,13.19l253.95,410.79c3.9,6.3,10.79,10.13,18.19,10.13h0Z"/>
    </g>
    <path class="cls-1" d="m477.76,540.66h-114.61c-10.16,0-16.29-11.22-10.81-19.76l247.3-385.78c4.78-7.45,12.41-12.59,21.1-14.22l144.13-27.02c5.08-.94,8.83,4.63,6.04,8.96l-275.14,428.01c-3.94,6.12-10.72,9.83-18,9.83h-.01Z"/>
    <path class="cls-9" d="m215.66,540.66h-112.65c-10.99,0-17.64-12.15-11.7-21.42l246.23-384.13c4.78-7.45,12.41-12.59,21.1-14.22l144.13-27.02c5.08-.94,8.83,4.63,6.04,8.96l-275.15,427.99c-3.94,6.12-10.72,9.83-18,9.83h0Z"/>
  </g>
  <g>
    <text class="cls-15" transform="translate(1121.41 232.01)"><tspan x="0" y="0">SIM</tspan><tspan class="cls-17" x="97.91" y="0">A</tspan><tspan x="131.1" y="0">TIC </tspan><tspan class="cls-14" x="227.81" y="0">A</tspan><tspan x="264.61" y="0">X</tspan><tspan class="cls-2" x="-255.97" y="144">A</tspan><tspan x="-219.11" y="144">u</tspan><tspan class="cls-12" x="-184.6" y="144">t</tspan><tspan x="-164.88" y="144">omation Enginee</tspan><tspan class="cls-6" x="284.74" y="144">r</tspan><tspan x="305.68" y="144">ing at </tspan><tspan class="cls-13" x="470.74" y="144">t</tspan><tspan x="491.07" y="144">he </tspan><tspan x="-280.36" y="216">speed of So</tspan><tspan class="cls-16" x="24.54" y="216">f</tspan><tspan x="45.89" y="216">t</tspan><tspan class="cls-13" x="66.52" y="216">w</tspan><tspan x="113.45" y="216">a</tspan><tspan class="cls-7" x="144.24" y="216">r</tspan><tspan x="164.46" y="216">e D</tspan><tspan class="cls-5" x="250.36" y="216">e</tspan><tspan class="cls-3" x="281.12" y="216">v</tspan><tspan x="309.92" y="216">elopment!</tspan></text>
    <g>
      <path class="cls-11" d="m1125.07,230.75l.62-4.19c3.79,1.39,7.16,2.08,10.11,2.08,2.66,0,4.76-.7,6.3-2.11,1.46-1.33,2.2-3.09,2.2-5.27,0-2.05-.62-3.64-1.85-4.78-1.02-.98-3.22-2.22-6.62-3.72-2.42-1.07-4.16-1.9-5.2-2.48-1.04-.58-1.98-1.21-2.8-1.89-2.11-1.8-3.16-4.22-3.16-7.27,0-2.73.75-5.05,2.26-6.94,1.11-1.39,2.71-2.47,4.78-3.25,1.86-.68,3.84-1.03,5.95-1.03,2.79,0,6.06.62,9.81,1.85l-.97,4.31c-3.07-1.46-6.03-2.2-8.88-2.2-2.19,0-4.03.57-5.54,1.7-1.54,1.15-2.31,2.71-2.31,4.69,0,1.7.58,3.12,1.73,4.26s3.24,2.35,6.27,3.62c2.3.96,4.05,1.77,5.23,2.43,1.18.66,2.22,1.42,3.12,2.26,2.19,2.05,3.28,4.73,3.28,8.03,0,3.69-1.3,6.6-3.9,8.73-2.48,2.01-5.76,3.02-9.84,3.02-3.18,0-6.71-.62-10.58-1.85Z"/>
      <path class="cls-11" d="m1158,232.01v-41.51h4.8v41.51h-4.8Z"/>
      <path class="cls-11" d="m1173.59,232.01v-41.51h6.68l11.75,31.41c.61,1.62,1.28,3.56,2.02,5.8.59-1.86,1.25-3.79,1.99-5.8l11.46-31.41h6.42v41.51h-4.8v-34.57c-1.46,4.69-2.64,8.22-3.52,10.61l-8.96,23.96h-5.57l-9.14-23.7c-1-2.58-2.25-6.2-3.75-10.87v34.57h-4.57Z"/>
      <path class="cls-11" d="m1245.6,217.47h-15.47l-5.1,14.53h-4.86l14.77-41.51h6.06l14.88,41.51h-5.19l-5.1-14.53Zm-1.44-3.96l-3.69-10.93c-.94-2.77-1.79-5.44-2.55-8-.7,2.36-1.56,5.04-2.58,8.03l-3.78,10.9h12.6Z"/>
      <path class="cls-11" d="m1265.49,232.01v-37.56h-12.13v-3.96h29.21v3.96h-12.28v37.56h-4.8Z"/>
      <path class="cls-11" d="m1288.81,232.01v-41.51h4.8v41.51h-4.8Z"/>
      <path class="cls-11" d="m1331.59,226.44l1.2,3.84c-3.96,1.54-7.69,2.31-11.16,2.31-5.7,0-10.29-1.84-13.77-5.51-3.73-3.94-5.6-9.12-5.6-15.53,0-4.43.88-8.36,2.64-11.78,1.95-3.77,4.66-6.47,8.12-8.12,2.5-1.17,5.29-1.76,8.38-1.76,3.61,0,7.33.86,11.16,2.58l-1.55,3.84c-3.44-1.64-6.61-2.46-9.52-2.46-4.57,0-8.07,1.73-10.49,5.19-2.42,3.48-3.63,7.66-3.63,12.54,0,3.36.62,6.42,1.88,9.17,1.17,2.58,2.81,4.54,4.92,5.87,2.11,1.34,4.61,2.01,7.5,2.01,3.26,0,6.57-.73,9.93-2.2Z"/>
      <path class="cls-11" d="m1375.5,217.47h-15.47l-5.1,14.53h-4.86l14.77-41.51h6.06l14.88,41.51h-5.19l-5.1-14.53Zm-1.44-3.96l-3.69-10.93c-.94-2.77-1.79-5.44-2.55-8-.7,2.36-1.56,5.04-2.58,8.03l-3.78,10.9h12.6Z"/>
      <path class="cls-11" d="m1387.46,232.01l14.15-21.12-13.42-20.39h5.57l10.78,16.38,11.19-16.38h5.27l-13.68,20.16,14.15,21.36h-5.74l-11.19-17.17-11.63,17.17h-5.45Z"/>
      <path class="cls-11" d="m891.72,361.47h-15.47l-5.1,14.53h-4.86l14.77-41.51h6.06l14.88,41.51h-5.19l-5.1-14.53Zm-1.44-3.96l-3.69-10.93c-.94-2.77-1.79-5.44-2.55-8-.7,2.36-1.56,5.04-2.58,8.03l-3.78,10.9h12.6Z"/>
      <path class="cls-11" d="m931.57,345.6v20.51c0,4.73.08,8.03.23,9.9h-4.51l-.18-4.86c-1.76,1.89-3.5,3.28-5.23,4.15s-3.59,1.3-5.58,1.3c-3.77,0-6.36-1.41-7.76-4.22-.47-.92-.8-2.07-.98-3.46s-.28-3.3-.28-5.74v-17.58h4.57v17.67c0,3.07.21,5.21.64,6.42.74,2.17,2.43,3.25,5.07,3.25,3.22,0,6.37-1.89,9.43-5.68v-21.65h4.57Z"/>
      <path class="cls-11" d="m943.67,349.26h-4.92v-3.66h4.92v-6.65l4.57-.97v7.62h7.18v3.66h-7.18v16.61c0,2.52.21,4.24.64,5.16.62,1.27,1.78,1.9,3.46,1.9,1.02,0,2.18-.3,3.49-.91l.41,3.63c-1.76.62-3.4.94-4.92.94-2.79,0-4.77-.74-5.92-2.23s-1.73-4.01-1.73-7.59v-17.52Z"/>
      <path class="cls-11" d="m973.46,345.01c4.43,0,7.98,1.67,10.63,5.01,2.25,2.81,3.37,6.41,3.37,10.78,0,4.71-1.3,8.51-3.9,11.4-2.64,2.93-6.01,4.39-10.11,4.39-4.43,0-7.98-1.67-10.63-5.01-2.25-2.83-3.37-6.49-3.37-10.99s1.3-8.35,3.9-11.22c2.62-2.91,5.99-4.37,10.11-4.37Zm0,3.66c-3.3,0-5.78,1.48-7.44,4.45-1.17,2.09-1.76,4.61-1.76,7.56,0,3.42.7,6.21,2.11,8.38,1.68,2.58,4.04,3.87,7.09,3.87,3.3,0,5.78-1.49,7.44-4.48,1.17-2.07,1.76-4.62,1.76-7.65,0-3.36-.7-6.11-2.11-8.26-1.68-2.58-4.04-3.87-7.09-3.87Z"/>
      <path class="cls-11" d="m995.64,376.01v-20.51c0-4.63-.08-7.93-.23-9.9h4.51l.18,4.8c1.09-1.15,2.11-2.09,3.05-2.81,2.21-1.72,4.61-2.58,7.21-2.58,2.09,0,3.82.51,5.19,1.54s2.29,2.51,2.78,4.47c1.95-2.21,3.72-3.76,5.3-4.66s3.37-1.35,5.36-1.35c3.63,0,6.12,1.41,7.47,4.22.43.92.74,2.08.92,3.49s.28,3.31.28,5.71v17.58h-4.57v-17.67c0-3.05-.2-5.19-.59-6.42-.7-2.17-2.3-3.25-4.8-3.25-3.01,0-5.93,1.89-8.76,5.68v21.65h-4.57v-18.19c0-2.83-.21-4.82-.64-5.98-.8-2.11-2.33-3.16-4.6-3.16-3.03,0-6,1.89-8.91,5.68v21.65h-4.57Z"/>
      <path class="cls-11" d="m1063.96,372.46c-1.37,1.48-2.75,2.54-4.15,3.18s-3.04.95-4.94.95c-3.18,0-5.62-.9-7.29-2.7-1.48-1.58-2.23-3.67-2.23-6.27,0-4,1.69-6.86,5.07-8.55,1.99-1,4.93-1.49,8.82-1.49.61,0,2.06.04,4.37.12v-.82c0-2.21-.28-3.89-.85-5.04-1.02-2.11-3.03-3.16-6.04-3.16-2.46,0-5.08.88-7.85,2.64l-1.99-3.28c3.18-2.01,6.63-3.02,10.34-3.02,4.61,0,7.76,1.38,9.46,4.13.59.98.98,2.09,1.19,3.35s.31,3.26.31,5.99v9.93c0,3.12.08,5.65.23,7.59h-4.25l-.21-3.54Zm-.35-11.28c-1.07-.08-2.21-.12-3.4-.12-3.26,0-5.63.43-7.12,1.29-1.95,1.11-2.93,2.83-2.93,5.16,0,1.64.49,2.95,1.46,3.93,1.02,1,2.37,1.49,4.07,1.49,3.18,0,5.82-1.55,7.91-4.66v-7.09Z"/>
      <path class="cls-11" d="m1080.28,349.26h-4.92v-3.66h4.92v-6.65l4.57-.97v7.62h7.18v3.66h-7.18v16.61c0,2.52.21,4.24.64,5.16.62,1.27,1.78,1.9,3.46,1.9,1.02,0,2.18-.3,3.49-.91l.41,3.63c-1.76.62-3.4.94-4.92.94-2.79,0-4.77-.74-5.92-2.23s-1.73-4.01-1.73-7.59v-17.52Z"/>
      <path class="cls-11" d="m1101.52,331.56c.96,0,1.74.3,2.34.91s.91,1.38.91,2.31-.3,1.74-.91,2.34-1.38.91-2.31.91-1.74-.3-2.34-.91-.91-1.4-.91-2.37c0-.92.31-1.68.92-2.29s1.38-.91,2.3-.91Zm-2.26,44.44v-30.41h4.57v30.41h-4.57Z"/>
      <path class="cls-11" d="m1125.98,345.01c4.43,0,7.98,1.67,10.63,5.01,2.25,2.81,3.37,6.41,3.37,10.78,0,4.71-1.3,8.51-3.9,11.4-2.64,2.93-6.01,4.39-10.11,4.39-4.43,0-7.98-1.67-10.63-5.01-2.25-2.83-3.37-6.49-3.37-10.99s1.3-8.35,3.9-11.22c2.62-2.91,5.99-4.37,10.11-4.37Zm0,3.66c-3.3,0-5.78,1.48-7.44,4.45-1.17,2.09-1.76,4.61-1.76,7.56,0,3.42.7,6.21,2.11,8.38,1.68,2.58,4.04,3.87,7.09,3.87,3.3,0,5.78-1.49,7.44-4.48,1.17-2.07,1.76-4.62,1.76-7.65,0-3.36-.7-6.11-2.11-8.26-1.68-2.58-4.04-3.87-7.09-3.87Z"/>
      <path class="cls-11" d="m1148.16,376.01v-20.51c0-4.63-.08-7.93-.23-9.9h4.51l.18,4.86c1.88-1.97,3.66-3.37,5.35-4.2s3.59-1.25,5.7-1.25c3.85,0,6.48,1.41,7.91,4.22.45.92.77,2.08.97,3.47s.29,3.31.29,5.73v17.58h-4.57v-17.67c0-3.05-.21-5.19-.64-6.42-.76-2.17-2.51-3.25-5.24-3.25-3.3,0-6.51,1.89-9.64,5.68v21.65h-4.57Z"/>
      <path class="cls-11" d="m1198.2,376.01v-41.51h21.91v3.96h-17.11v14.53h16.26v3.96h-16.26v15.12h17.99v3.96h-22.79Z"/>
      <path class="cls-11" d="m1229.75,376.01v-20.51c0-4.63-.08-7.93-.23-9.9h4.51l.18,4.86c1.88-1.97,3.66-3.37,5.35-4.2s3.59-1.25,5.7-1.25c3.85,0,6.48,1.41,7.91,4.22.45.92.77,2.08.97,3.47s.29,3.31.29,5.73v17.58h-4.57v-17.67c0-3.05-.21-5.19-.64-6.42-.76-2.17-2.51-3.25-5.24-3.25-3.3,0-6.51,1.89-9.64,5.68v21.65h-4.57Z"/>
      <path class="cls-11" d="m1283.72,345.6h4.45c-.16,4.92-.23,8.92-.23,11.98v15.21c0,3.28-.17,5.75-.51,7.4s-.99,3.13-1.95,4.44c-2.38,3.26-5.93,4.89-10.63,4.89-4.04,0-7.87-1.1-11.48-3.31l1.96-3.52c3.11,2.11,6.25,3.16,9.43,3.16,3.57,0,6.05-1.45,7.44-4.34.78-1.62,1.17-4.39,1.17-8.32v-2.52c-2.83,3.2-5.93,4.8-9.29,4.8s-6.22-1.37-8.47-4.1c-2.21-2.68-3.31-6.31-3.31-10.9,0-4.96,1.22-8.89,3.66-11.78,2.09-2.46,4.82-3.69,8.2-3.69,4,0,7.13,1.76,9.38,5.27l.18-4.69Zm-.35,8.94c-.82-1.56-1.74-2.78-2.75-3.66-1.7-1.46-3.53-2.2-5.48-2.2-2.71,0-4.78,1.23-6.18,3.69-1.23,2.17-1.85,4.85-1.85,8.06s.64,5.71,1.93,7.82c1.48,2.38,3.57,3.57,6.27,3.57,3.26,0,5.95-1.78,8.06-5.33v-11.95Z"/>
      <path class="cls-11" d="m1300.65,331.56c.96,0,1.74.3,2.34.91s.91,1.38.91,2.31-.3,1.74-.91,2.34-1.38.91-2.31.91-1.74-.3-2.34-.91-.91-1.4-.91-2.37c0-.92.31-1.68.92-2.29s1.38-.91,2.3-.91Zm-2.26,44.44v-30.41h4.57v30.41h-4.57Z"/>
      <path class="cls-11" d="m1313.39,376.01v-20.51c0-4.63-.08-7.93-.23-9.9h4.51l.18,4.86c1.88-1.97,3.66-3.37,5.35-4.2s3.59-1.25,5.7-1.25c3.85,0,6.48,1.41,7.91,4.22.45.92.77,2.08.97,3.47s.29,3.31.29,5.73v17.58h-4.57v-17.67c0-3.05-.21-5.19-.64-6.42-.76-2.17-2.51-3.25-5.24-3.25-3.3,0-6.51,1.89-9.64,5.68v21.65h-4.57Z"/>
      <path class="cls-11" d="m1350.78,362.03c.33,3.4,1.11,5.93,2.34,7.59,1.68,2.21,4.16,3.31,7.44,3.31,2.79,0,5.57-.96,8.32-2.87l1.76,3.54c-3.16,1.99-6.55,2.99-10.17,2.99-4.8,0-8.51-1.57-11.1-4.72-2.27-2.75-3.4-6.45-3.4-11.07,0-5.61,1.51-9.81,4.54-12.63,2.27-2.11,5.17-3.16,8.7-3.16,5.41,0,9.04,2.22,10.9,6.65,1.04,2.5,1.59,5.96,1.67,10.37h-21.01Zm16.14-3.66c-.06-2.25-.45-4.12-1.17-5.62-1.31-2.71-3.54-4.07-6.68-4.07-2.42,0-4.37.86-5.83,2.59s-2.25,4.1-2.34,7.1h16.03Z"/>
      <path class="cls-11" d="m1382.33,362.03c.33,3.4,1.11,5.93,2.34,7.59,1.68,2.21,4.16,3.31,7.44,3.31,2.79,0,5.57-.96,8.32-2.87l1.76,3.54c-3.16,1.99-6.55,2.99-10.17,2.99-4.8,0-8.51-1.57-11.1-4.72-2.27-2.75-3.4-6.45-3.4-11.07,0-5.61,1.51-9.81,4.54-12.63,2.27-2.11,5.17-3.16,8.7-3.16,5.41,0,9.04,2.22,10.9,6.65,1.04,2.5,1.59,5.96,1.67,10.37h-21.01Zm16.14-3.66c-.06-2.25-.45-4.12-1.17-5.62-1.31-2.71-3.54-4.07-6.68-4.07-2.42,0-4.37.86-5.83,2.59s-2.25,4.1-2.34,7.1h16.03Z"/>
      <path class="cls-11" d="m1411.42,376.01v-17.34c0-3.81-.06-7.7-.18-11.66l-.03-1.41h4.25l.18,5.6c1.19-2.21,2.45-3.79,3.78-4.76s2.91-1.45,4.75-1.45c.62,0,1.34.08,2.14.23l-.41,4.1c-.57-.14-1.1-.21-1.61-.21-2.25,0-4.23,1.13-5.95,3.4-.98,1.27-1.76,2.69-2.34,4.25v19.25h-4.57Z"/>
      <path class="cls-11" d="m1434.57,331.56c.96,0,1.74.3,2.34.91s.91,1.38.91,2.31-.3,1.74-.91,2.34-1.38.91-2.31.91-1.74-.3-2.34-.91-.91-1.4-.91-2.37c0-.92.31-1.68.92-2.29s1.38-.91,2.3-.91Zm-2.26,44.44v-30.41h4.57v30.41h-4.57Z"/>
      <path class="cls-11" d="m1447.31,376.01v-20.51c0-4.63-.08-7.93-.23-9.9h4.51l.18,4.86c1.88-1.97,3.66-3.37,5.35-4.2s3.59-1.25,5.7-1.25c3.85,0,6.48,1.41,7.91,4.22.45.92.77,2.08.97,3.47s.29,3.31.29,5.73v17.58h-4.57v-17.67c0-3.05-.21-5.19-.64-6.42-.76-2.17-2.51-3.25-5.24-3.25-3.3,0-6.51,1.89-9.64,5.68v21.65h-4.57Z"/>
      <path class="cls-11" d="m1501.28,345.6h4.45c-.16,4.92-.23,8.92-.23,11.98v15.21c0,3.28-.17,5.75-.51,7.4s-.99,3.13-1.95,4.44c-2.38,3.26-5.93,4.89-10.63,4.89-4.04,0-7.87-1.1-11.48-3.31l1.96-3.52c3.11,2.11,6.25,3.16,9.43,3.16,3.57,0,6.05-1.45,7.44-4.34.78-1.62,1.17-4.39,1.17-8.32v-2.52c-2.83,3.2-5.93,4.8-9.29,4.8s-6.22-1.37-8.47-4.1c-2.21-2.68-3.31-6.31-3.31-10.9,0-4.96,1.22-8.89,3.66-11.78,2.09-2.46,4.82-3.69,8.2-3.69,4,0,7.13,1.76,9.38,5.27l.18-4.69Zm-.35,8.94c-.82-1.56-1.74-2.78-2.75-3.66-1.7-1.46-3.53-2.2-5.48-2.2-2.71,0-4.78,1.23-6.18,3.69-1.23,2.17-1.85,4.85-1.85,8.06s.64,5.71,1.93,7.82c1.48,2.38,3.57,3.57,6.27,3.57,3.26,0,5.95-1.78,8.06-5.33v-11.95Z"/>
      <path class="cls-11" d="m1547.07,372.46c-1.37,1.48-2.75,2.54-4.15,3.18s-3.04.95-4.94.95c-3.18,0-5.62-.9-7.29-2.7-1.48-1.58-2.23-3.67-2.23-6.27,0-4,1.69-6.86,5.07-8.55,1.99-1,4.93-1.49,8.82-1.49.61,0,2.06.04,4.37.12v-.82c0-2.21-.28-3.89-.85-5.04-1.02-2.11-3.03-3.16-6.04-3.16-2.46,0-5.08.88-7.85,2.64l-1.99-3.28c3.18-2.01,6.63-3.02,10.34-3.02,4.61,0,7.76,1.38,9.46,4.13.59.98.98,2.09,1.19,3.35s.31,3.26.31,5.99v9.93c0,3.12.08,5.65.23,7.59h-4.25l-.21-3.54Zm-.35-11.28c-1.07-.08-2.21-.12-3.4-.12-3.26,0-5.63.43-7.12,1.29-1.95,1.11-2.93,2.83-2.93,5.16,0,1.64.49,2.95,1.46,3.93,1.02,1,2.37,1.49,4.07,1.49,3.18,0,5.82-1.55,7.91-4.66v-7.09Z"/>
      <path class="cls-11" d="m1563.38,349.26h-4.92v-3.66h4.92v-6.65l4.57-.97v7.62h7.18v3.66h-7.18v16.61c0,2.52.21,4.24.64,5.16.62,1.27,1.78,1.9,3.46,1.9,1.02,0,2.18-.3,3.49-.91l.41,3.63c-1.76.62-3.4.94-4.92.94-2.79,0-4.77-.74-5.92-2.23s-1.73-4.01-1.73-7.59v-17.52Z"/>
      <path class="cls-11" d="m1599.01,349.26h-4.92v-3.66h4.92v-6.65l4.57-.97v7.62h7.18v3.66h-7.18v16.61c0,2.52.21,4.24.64,5.16.62,1.27,1.78,1.9,3.46,1.9,1.02,0,2.18-.3,3.49-.91l.41,3.63c-1.76.62-3.4.94-4.92.94-2.79,0-4.77-.74-5.92-2.23s-1.73-4.01-1.73-7.59v-17.52Z"/>
      <path class="cls-11" d="m1617.7,376.01v-43.86h4.57v18.16c3.34-3.54,6.98-5.3,10.93-5.3s6.46,1.41,7.91,4.22c.45.92.77,2.07.97,3.46s.29,3.3.29,5.74v17.58h-4.57v-17.67c0-3.05-.21-5.19-.64-6.42-.74-2.17-2.49-3.25-5.24-3.25-3.32,0-6.53,1.89-9.64,5.68v21.65h-4.57Z"/>
      <path class="cls-11" d="m1655.08,362.03c.33,3.4,1.11,5.93,2.34,7.59,1.68,2.21,4.16,3.31,7.44,3.31,2.79,0,5.57-.96,8.32-2.87l1.76,3.54c-3.16,1.99-6.55,2.99-10.17,2.99-4.8,0-8.51-1.57-11.1-4.72-2.27-2.75-3.4-6.45-3.4-11.07,0-5.61,1.51-9.81,4.54-12.63,2.27-2.11,5.17-3.16,8.7-3.16,5.41,0,9.04,2.22,10.9,6.65,1.04,2.5,1.59,5.96,1.67,10.37h-21.01Zm16.14-3.66c-.06-2.25-.45-4.12-1.17-5.62-1.31-2.71-3.54-4.07-6.68-4.07-2.42,0-4.37.86-5.83,2.59s-2.25,4.1-2.34,7.1h16.03Z"/>
      <path class="cls-11" d="m843.99,446.51l1.38-3.6c2.79,1.35,5.25,2.02,7.38,2.02,1.74,0,3.14-.47,4.22-1.42s1.61-2.18,1.61-3.71c0-1.33-.37-2.32-1.1-2.97s-2.4-1.48-5-2.48c-1.68-.66-2.93-1.22-3.76-1.67s-1.6-1.01-2.3-1.67c-1.54-1.43-2.31-3.26-2.31-5.51,0-2.68,1.04-4.82,3.13-6.45,1.78-1.37,4.06-2.05,6.86-2.05s5.74.75,8.67,2.26l-1.38,3.6c-2.19-1.46-4.48-2.2-6.88-2.2-1.76,0-3.13.4-4.12,1.19s-1.48,1.88-1.48,3.27c0,1.23.4,2.2,1.2,2.92s2.47,1.58,5.01,2.59c1.95.8,3.38,1.46,4.29,1.99s1.67,1.16,2.3,1.9c1.11,1.27,1.67,2.92,1.67,4.95,0,2.93-1.1,5.22-3.31,6.88-1.97,1.48-4.43,2.23-7.38,2.23s-5.77-.69-8.7-2.08Z"/>
      <path class="cls-11" d="m871.52,460.9v-31.03c0-3.36-.06-6.9-.18-10.63l-.06-1.64h4.28l.18,4.63c1.02-1.39,1.99-2.42,2.93-3.11,1.89-1.41,4.02-2.11,6.39-2.11,3.54,0,6.45,1.5,8.73,4.51,2.17,2.85,3.25,6.54,3.25,11.07,0,5.04-1.27,9.08-3.81,12.13-2.19,2.6-4.99,3.9-8.41,3.9-1.84,0-3.4-.35-4.69-1.05s-2.64-1.94-4.04-3.72v17.05h-4.57Zm4.57-21.62c.88,1.33,1.66,2.36,2.34,3.11,1.62,1.72,3.51,2.58,5.65,2.58,2.79,0,4.89-1.29,6.3-3.87,1.23-2.25,1.85-5.04,1.85-8.38,0-3.59-.72-6.53-2.17-8.82-1.37-2.15-3.34-3.22-5.92-3.22-3.18,0-5.87,1.86-8.06,5.57v13.04Z"/>
      <path class="cls-11" d="m907.71,434.03c.33,3.4,1.11,5.93,2.34,7.59,1.68,2.21,4.16,3.31,7.44,3.31,2.79,0,5.57-.96,8.32-2.87l1.76,3.54c-3.16,1.99-6.55,2.99-10.17,2.99-4.8,0-8.51-1.57-11.1-4.72-2.27-2.75-3.4-6.45-3.4-11.07,0-5.61,1.51-9.81,4.54-12.63,2.27-2.11,5.17-3.16,8.7-3.16,5.41,0,9.04,2.22,10.9,6.65,1.04,2.5,1.59,5.96,1.67,10.37h-21.01Zm16.14-3.66c-.06-2.25-.45-4.12-1.17-5.62-1.31-2.71-3.54-4.07-6.68-4.07-2.42,0-4.37.86-5.83,2.59s-2.25,4.1-2.34,7.1h16.03Z"/>
      <path class="cls-11" d="m939.26,434.03c.33,3.4,1.11,5.93,2.34,7.59,1.68,2.21,4.16,3.31,7.44,3.31,2.79,0,5.57-.96,8.32-2.87l1.76,3.54c-3.16,1.99-6.55,2.99-10.17,2.99-4.8,0-8.51-1.57-11.1-4.72-2.27-2.75-3.4-6.45-3.4-11.07,0-5.61,1.51-9.81,4.54-12.63,2.27-2.11,5.17-3.16,8.7-3.16,5.41,0,9.04,2.22,10.9,6.65,1.04,2.5,1.59,5.96,1.67,10.37h-21.01Zm16.14-3.66c-.06-2.25-.45-4.12-1.17-5.62-1.31-2.71-3.54-4.07-6.68-4.07-2.42,0-4.37.86-5.83,2.59s-2.25,4.1-2.34,7.1h16.03Z"/>
      <path class="cls-11" d="m986.92,404.15h4.57v32.78c0,2.83.07,6.16.21,9.99l.03,1.08h-4.31l-.15-4.63c-1.54,2.01-2.96,3.39-4.26,4.13s-2.91,1.11-4.82,1.11c-3.69,0-6.66-1.52-8.91-4.57-2.21-2.97-3.31-6.79-3.31-11.46s1.25-8.78,3.75-11.69c2.25-2.6,4.99-3.9,8.23-3.9,3.61,0,6.6,1.59,8.96,4.78v-17.64Zm0,22.21c-1.95-3.79-4.64-5.68-8.06-5.68-2.58,0-4.55,1.07-5.92,3.22-1.45,2.29-2.17,5.22-2.17,8.82,0,3.34.62,6.13,1.85,8.38,1.41,2.58,3.51,3.87,6.3,3.87,1.58,0,2.99-.44,4.22-1.32s2.49-2.34,3.78-4.39v-12.89Z"/>
      <path class="cls-11" d="m1028.67,417.01c4.43,0,7.98,1.67,10.63,5.01,2.25,2.81,3.37,6.41,3.37,10.78,0,4.71-1.3,8.51-3.9,11.4-2.64,2.93-6.01,4.39-10.11,4.39-4.43,0-7.98-1.67-10.63-5.01-2.25-2.83-3.37-6.49-3.37-10.99s1.3-8.35,3.9-11.22c2.62-2.91,5.99-4.37,10.11-4.37Zm0,3.66c-3.3,0-5.78,1.48-7.44,4.45-1.17,2.09-1.76,4.61-1.76,7.56,0,3.42.7,6.21,2.11,8.38,1.68,2.58,4.04,3.87,7.09,3.87,3.3,0,5.78-1.49,7.44-4.48,1.17-2.07,1.76-4.62,1.76-7.65,0-3.36-.7-6.11-2.11-8.26-1.68-2.58-4.04-3.87-7.09-3.87Z"/>
      <path class="cls-11" d="m1052.49,448.01v-26.75h-4.92v-3.66h4.92v-2.9c0-3.57.5-6.17,1.49-7.79,1.37-2.23,3.68-3.34,6.94-3.34,1.33,0,2.75.2,4.28.59l-.41,3.96c-1.07-.59-2.24-.88-3.49-.88-1.58,0-2.69.58-3.31,1.74s-.94,3.2-.94,6.11v2.52h7.18v3.66h-7.18v26.75h-4.57Z"/>
      <path class="cls-11" d="m1084.51,446.75l.62-4.19c3.79,1.39,7.16,2.08,10.11,2.08,2.66,0,4.76-.7,6.3-2.11,1.46-1.33,2.2-3.09,2.2-5.27,0-2.05-.62-3.64-1.85-4.78-1.02-.98-3.22-2.22-6.62-3.72-2.42-1.07-4.16-1.9-5.2-2.48s-1.98-1.21-2.8-1.89c-2.11-1.8-3.16-4.22-3.16-7.27,0-2.73.75-5.05,2.26-6.94,1.11-1.39,2.71-2.47,4.78-3.25,1.86-.68,3.84-1.03,5.95-1.03,2.79,0,6.06.62,9.81,1.85l-.97,4.31c-3.07-1.46-6.03-2.2-8.88-2.2-2.19,0-4.03.57-5.54,1.7-1.54,1.15-2.31,2.71-2.31,4.69,0,1.7.58,3.12,1.73,4.26s3.24,2.35,6.27,3.62c2.3.96,4.05,1.77,5.23,2.43s2.22,1.42,3.12,2.26c2.19,2.05,3.28,4.73,3.28,8.03,0,3.69-1.3,6.6-3.9,8.73-2.48,2.01-5.76,3.02-9.84,3.02-3.18,0-6.71-.62-10.58-1.85Z"/>
      <path class="cls-11" d="m1128.99,417.01c4.43,0,7.98,1.67,10.63,5.01,2.25,2.81,3.37,6.41,3.37,10.78,0,4.71-1.3,8.51-3.9,11.4-2.64,2.93-6.01,4.39-10.11,4.39-4.43,0-7.98-1.67-10.63-5.01-2.25-2.83-3.37-6.49-3.37-10.99s1.3-8.35,3.9-11.22c2.62-2.91,5.99-4.37,10.11-4.37Zm0,3.66c-3.3,0-5.78,1.48-7.44,4.45-1.17,2.09-1.76,4.61-1.76,7.56,0,3.42.7,6.21,2.11,8.38,1.68,2.58,4.04,3.87,7.09,3.87,3.3,0,5.78-1.49,7.44-4.48,1.17-2.07,1.76-4.62,1.76-7.65,0-3.36-.7-6.11-2.11-8.26-1.68-2.58-4.04-3.87-7.09-3.87Z"/>
      <path class="cls-11" d="m1152.8,448.01v-26.75h-4.92v-3.66h4.92v-2.9c0-3.57.5-6.17,1.49-7.79,1.37-2.23,3.68-3.34,6.94-3.34,1.33,0,2.75.2,4.28.59l-.41,3.96c-1.07-.59-2.24-.88-3.49-.88-1.58,0-2.69.58-3.31,1.74s-.94,3.2-.94,6.11v2.52h7.18v3.66h-7.18v26.75h-4.57Z"/>
      <path class="cls-11" d="m1174.16,421.26h-4.92v-3.66h4.92v-6.65l4.57-.97v7.62h7.18v3.66h-7.18v16.61c0,2.52.21,4.24.64,5.16.62,1.27,1.78,1.9,3.46,1.9,1.02,0,2.18-.3,3.49-.91l.41,3.63c-1.76.62-3.4.94-4.92.94-2.79,0-4.77-.74-5.92-2.23s-1.73-4.01-1.73-7.59v-17.52Z"/>
      <path class="cls-11" d="m1197.95,448.01l-8.35-30.41h4.69l5.01,19.04c.78,2.97,1.41,5.46,1.88,7.47.61-2.38,1.3-4.94,2.08-7.68l5.3-18.84h5.95l5.45,18.4c.84,2.89,1.6,5.6,2.29,8.12.59-2.36,1.26-4.96,2.02-7.79l5.07-18.72h4.13l-8.53,30.41h-5.74l-5.86-19.42c-.8-2.66-1.49-5.06-2.08-7.21-.61,2.38-1.29,4.91-2.05,7.59l-5.45,19.04h-5.8Z"/>
      <path class="cls-11" d="m1256.19,444.46c-1.37,1.48-2.75,2.54-4.15,3.18s-3.04.95-4.94.95c-3.18,0-5.62-.9-7.29-2.7-1.48-1.58-2.23-3.67-2.23-6.27,0-4,1.69-6.86,5.07-8.55,1.99-1,4.93-1.49,8.82-1.49.61,0,2.06.04,4.37.12v-.82c0-2.21-.28-3.89-.85-5.04-1.02-2.11-3.03-3.16-6.04-3.16-2.46,0-5.08.88-7.85,2.64l-1.99-3.28c3.18-2.01,6.63-3.02,10.34-3.02,4.61,0,7.76,1.38,9.46,4.13.59.98.98,2.09,1.19,3.35s.31,3.26.31,5.99v9.93c0,3.12.08,5.65.23,7.59h-4.25l-.21-3.54Zm-.35-11.28c-1.07-.08-2.21-.12-3.4-.12-3.26,0-5.63.43-7.12,1.29-1.95,1.11-2.93,2.83-2.93,5.16,0,1.64.49,2.95,1.46,3.93,1.02,1,2.37,1.49,4.07,1.49,3.18,0,5.82-1.55,7.91-4.66v-7.09Z"/>
      <path class="cls-11" d="m1270.93,448.01v-17.34c0-3.81-.06-7.7-.18-11.66l-.03-1.41h4.25l.18,5.6c1.19-2.21,2.45-3.79,3.78-4.76s2.91-1.45,4.75-1.45c.62,0,1.34.08,2.14.23l-.41,4.1c-.57-.14-1.1-.21-1.61-.21-2.25,0-4.23,1.13-5.95,3.4-.98,1.27-1.76,2.69-2.34,4.25v19.25h-4.57Z"/>
      <path class="cls-11" d="m1293.6,434.03c.33,3.4,1.11,5.93,2.34,7.59,1.68,2.21,4.16,3.31,7.44,3.31,2.79,0,5.57-.96,8.32-2.87l1.76,3.54c-3.16,1.99-6.55,2.99-10.17,2.99-4.8,0-8.51-1.57-11.1-4.72-2.27-2.75-3.4-6.45-3.4-11.07,0-5.61,1.51-9.81,4.54-12.63,2.27-2.11,5.17-3.16,8.7-3.16,5.41,0,9.04,2.22,10.9,6.65,1.04,2.5,1.59,5.96,1.67,10.37h-21.01Zm16.14-3.66c-.06-2.25-.45-4.12-1.17-5.62-1.31-2.71-3.54-4.07-6.68-4.07-2.42,0-4.37.86-5.83,2.59s-2.25,4.1-2.34,7.1h16.03Z"/>
      <path class="cls-11" d="m1337.81,448.01v-41.51h9.29c3.22,0,5.9.19,8.03.56,4.63.84,8.08,3.17,10.34,7,2.05,3.48,3.08,7.79,3.08,12.95s-.96,9.21-2.87,12.63c-2.36,4.2-5.95,6.78-10.75,7.73-2.21.43-5.03.64-8.47.64h-8.64Zm4.8-3.96h4.19c4.92,0,8.59-.89,11.02-2.67,1.8-1.31,3.18-3.19,4.16-5.64s1.46-5.26,1.46-8.42c0-4.55-.91-8.35-2.72-11.4-1.68-2.83-4.22-4.53-7.62-5.1-1.48-.25-3.82-.38-7-.38h-3.49v33.6Z"/>
      <path class="cls-11" d="m1379.5,434.03c.33,3.4,1.11,5.93,2.34,7.59,1.68,2.21,4.16,3.31,7.44,3.31,2.79,0,5.57-.96,8.32-2.87l1.76,3.54c-3.16,1.99-6.55,2.99-10.17,2.99-4.8,0-8.51-1.57-11.1-4.72-2.27-2.75-3.4-6.45-3.4-11.07,0-5.61,1.51-9.81,4.54-12.63,2.27-2.11,5.17-3.16,8.7-3.16,5.41,0,9.04,2.22,10.9,6.65,1.04,2.5,1.59,5.96,1.67,10.37h-21.01Zm16.14-3.66c-.06-2.25-.45-4.12-1.17-5.62-1.31-2.71-3.54-4.07-6.68-4.07-2.42,0-4.37.86-5.83,2.59s-2.25,4.1-2.34,7.1h16.03Z"/>
      <path class="cls-11" d="m1414.42,448.01l-10.93-30.41h4.8l7.44,20.57c.64,1.74,1.3,3.66,1.96,5.77.53-1.72,1.14-3.58,1.85-5.6l7.35-20.74h4.19l-10.81,30.41h-5.86Z"/>
      <path class="cls-11" d="m1439.06,434.03c.33,3.4,1.11,5.93,2.34,7.59,1.68,2.21,4.16,3.31,7.44,3.31,2.79,0,5.57-.96,8.32-2.87l1.76,3.54c-3.16,1.99-6.55,2.99-10.17,2.99-4.8,0-8.51-1.57-11.1-4.72-2.27-2.75-3.4-6.45-3.4-11.07,0-5.61,1.51-9.81,4.54-12.63,2.27-2.11,5.17-3.16,8.7-3.16,5.41,0,9.04,2.22,10.9,6.65,1.04,2.5,1.59,5.96,1.67,10.37h-21.01Zm16.14-3.66c-.06-2.25-.45-4.12-1.17-5.62-1.31-2.71-3.54-4.07-6.68-4.07-2.42,0-4.37.86-5.83,2.59s-2.25,4.1-2.34,7.1h16.03Z"/>
      <path class="cls-11" d="m1468.1,448.01v-43.86h4.57v43.86h-4.57Z"/>
      <path class="cls-11" d="m1494.82,417.01c4.43,0,7.98,1.67,10.63,5.01,2.25,2.81,3.37,6.41,3.37,10.78,0,4.71-1.3,8.51-3.9,11.4-2.64,2.93-6.01,4.39-10.11,4.39-4.43,0-7.98-1.67-10.63-5.01-2.25-2.83-3.37-6.49-3.37-10.99s1.3-8.35,3.9-11.22c2.62-2.91,5.99-4.37,10.11-4.37Zm0,3.66c-3.3,0-5.78,1.48-7.44,4.45-1.17,2.09-1.76,4.61-1.76,7.56,0,3.42.7,6.21,2.11,8.38,1.68,2.58,4.04,3.87,7.09,3.87,3.3,0,5.78-1.49,7.44-4.48,1.17-2.07,1.76-4.62,1.76-7.65,0-3.36-.7-6.11-2.11-8.26-1.68-2.58-4.04-3.87-7.09-3.87Z"/>
      <path class="cls-11" d="m1516.99,460.9v-31.03c0-3.36-.06-6.9-.18-10.63l-.06-1.64h4.28l.18,4.63c1.02-1.39,1.99-2.42,2.93-3.11,1.89-1.41,4.02-2.11,6.39-2.11,3.54,0,6.45,1.5,8.73,4.51,2.17,2.85,3.25,6.54,3.25,11.07,0,5.04-1.27,9.08-3.81,12.13-2.19,2.6-4.99,3.9-8.41,3.9-1.84,0-3.4-.35-4.69-1.05s-2.64-1.94-4.04-3.72v17.05h-4.57Zm4.57-21.62c.88,1.33,1.66,2.36,2.34,3.11,1.62,1.72,3.51,2.58,5.65,2.58,2.79,0,4.89-1.29,6.3-3.87,1.23-2.25,1.85-5.04,1.85-8.38,0-3.59-.72-6.53-2.17-8.82-1.37-2.15-3.34-3.22-5.92-3.22-3.18,0-5.87,1.86-8.06,5.57v13.04Z"/>
      <path class="cls-11" d="m1550.66,448.01v-20.51c0-4.63-.08-7.93-.23-9.9h4.51l.18,4.8c1.09-1.15,2.11-2.09,3.05-2.81,2.21-1.72,4.61-2.58,7.21-2.58,2.09,0,3.82.51,5.19,1.54s2.29,2.51,2.78,4.47c1.95-2.21,3.72-3.76,5.3-4.66s3.37-1.35,5.36-1.35c3.63,0,6.12,1.41,7.47,4.22.43.92.74,2.08.92,3.49s.28,3.31.28,5.71v17.58h-4.57v-17.67c0-3.05-.2-5.19-.59-6.42-.7-2.17-2.3-3.25-4.8-3.25-3.01,0-5.93,1.89-8.76,5.68v21.65h-4.57v-18.19c0-2.83-.21-4.82-.64-5.98-.8-2.11-2.33-3.16-4.6-3.16-3.03,0-6,1.89-8.91,5.68v21.65h-4.57Z"/>
      <path class="cls-11" d="m1605.38,434.03c.33,3.4,1.11,5.93,2.34,7.59,1.68,2.21,4.16,3.31,7.44,3.31,2.79,0,5.57-.96,8.32-2.87l1.76,3.54c-3.16,1.99-6.55,2.99-10.17,2.99-4.8,0-8.51-1.57-11.1-4.72-2.27-2.75-3.4-6.45-3.4-11.07,0-5.61,1.51-9.81,4.54-12.63,2.27-2.11,5.17-3.16,8.7-3.16,5.41,0,9.04,2.22,10.9,6.65,1.04,2.5,1.59,5.96,1.67,10.37h-21.01Zm16.14-3.66c-.06-2.25-.45-4.12-1.17-5.62-1.31-2.71-3.54-4.07-6.68-4.07-2.42,0-4.37.86-5.83,2.59s-2.25,4.1-2.34,7.1h16.03Z"/>
      <path class="cls-11" d="m1634.41,448.01v-20.51c0-4.63-.08-7.93-.23-9.9h4.51l.18,4.86c1.88-1.97,3.66-3.37,5.35-4.2s3.59-1.25,5.7-1.25c3.85,0,6.48,1.41,7.91,4.22.45.92.77,2.08.97,3.47s.29,3.31.29,5.73v17.58h-4.57v-17.67c0-3.05-.21-5.19-.64-6.42-.76-2.17-2.51-3.25-5.24-3.25-3.3,0-6.51,1.89-9.64,5.68v21.65h-4.57Z"/>
      <path class="cls-11" d="m1670.92,421.26h-4.92v-3.66h4.92v-6.65l4.57-.97v7.62h7.18v3.66h-7.18v16.61c0,2.52.21,4.24.64,5.16.62,1.27,1.78,1.9,3.46,1.9,1.02,0,2.18-.3,3.49-.91l.41,3.63c-1.76.62-3.4.94-4.92.94-2.79,0-4.77-.74-5.92-2.23s-1.73-4.01-1.73-7.59v-17.52Z"/>
      <path class="cls-11" d="m1695.21,441.5c1.02,0,1.86.34,2.53,1.01s1.01,1.52,1.01,2.53-.34,1.86-1.01,2.53-1.52,1.01-2.53,1.01-1.86-.34-2.53-1.01-1.01-1.54-1.01-2.59c0-.98.34-1.8,1.03-2.48s1.52-1.01,2.52-1.01Zm1.9-4.48h-3.84l-.53-30.53h4.92l-.56,30.53Z"/>
    </g>
  </g>
</svg>